<svg xmlns="http://www.w3.org/2000/svg" width="32" height="32" viewBox="0 0 32 32">
  <rect width="32" height="32" rx="6" fill="#18181b"/>
  <path d="M6 9C6 8.44772 6.44772 8 7 8H14C14.5523 8 15 8.44772 15 9V24C15 24 13.5 22.5 10.5 22.5C7.5 22.5 6 24 6 24V9Z" fill="white" opacity="0.9"/>
  <path d="M26 9C26 8.44772 25.5523 8 25 8H18C17.4477 8 17 8.44772 17 9V24C17 24 18.5 22.5 21.5 22.5C24.5 22.5 26 24 26 24V9Z" fill="white" opacity="0.7"/>
  <circle cx="10" cy="12" r="1" fill="#e11d48"/>
  <circle cx="22" cy="14" r="0.8" fill="#e11d48" opacity="0.7"/>
  <path d="M20.5 10L22.5 6L24.5 10" stroke="#e11d48" stroke-width="1.5" stroke-linecap="round" stroke-linejoin="round" fill="none"/>
</svg>
