<svg xmlns="http://www.w3.org/2000/svg" width="32" height="32" viewBox="0 0 32 32" fill="none">
  <!-- Open book base -->
  <path d="M4 7C4 5.89543 4.89543 5 6 5H14C15.1046 5 16 5.89543 16 7V26C16 26 14 24 10 24C6 24 4 26 4 26V7Z" fill="currentColor" opacity="0.9"/>
  <path d="M28 7C28 5.89543 27.1046 5 26 5H18C16.8954 5 16 5.89543 16 7V26C16 26 18 24 22 24C26 24 28 26 28 26V7Z" fill="currentColor" opacity="0.7"/>
  <!-- Spine -->
  <line x1="16" y1="5" x2="16" y2="26" stroke="currentColor" stroke-width="0.5" opacity="0.3"/>
  <!-- Magic sparkles -->
  <circle cx="10" cy="10" r="1" fill="#e11d48"/>
  <circle cx="22" cy="12" r="0.8" fill="#e11d48" opacity="0.7"/>
  <circle cx="13" cy="15" r="0.6" fill="#e11d48" opacity="0.5"/>
  <!-- Rising page / spell effect -->
  <path d="M20 8L23 3L26 8" stroke="#e11d48" stroke-width="1.5" stroke-linecap="round" stroke-linejoin="round" fill="none"/>
  <path d="M21.5 6L23 2L24.5 6" stroke="#e11d48" stroke-width="1" stroke-linecap="round" fill="none" opacity="0.5"/>
  <!-- Text lines on left page -->
  <line x1="6.5" y1="13" x2="13.5" y2="13" stroke="currentColor" stroke-width="0.8" opacity="0.15"/>
  <line x1="6.5" y1="15.5" x2="12" y2="15.5" stroke="currentColor" stroke-width="0.8" opacity="0.15"/>
  <line x1="6.5" y1="18" x2="13" y2="18" stroke="currentColor" stroke-width="0.8" opacity="0.15"/>
  <!-- Text lines on right page -->
  <line x1="18.5" y1="15" x2="25.5" y2="15" stroke="currentColor" stroke-width="0.8" opacity="0.15"/>
  <line x1="18.5" y1="17.5" x2="24" y2="17.5" stroke="currentColor" stroke-width="0.8" opacity="0.15"/>
  <line x1="18.5" y1="20" x2="25" y2="20" stroke="currentColor" stroke-width="0.8" opacity="0.15"/>
</svg>
